<?xml version="1.0" standalone="no"?>
<!DOCTYPE svg PUBLIC "-//W3C//DTD SVG 20010904//EN"
 "http://www.w3.org/TR/2001/REC-SVG-20010904/DTD/svg10.dtd">
<svg version="1.0" xmlns="http://www.w3.org/2000/svg"
 width="512.000000pt" height="512.000000pt" viewBox="0 0 512.000000 512.000000"
 preserveAspectRatio="xMidYMid meet">
<metadata>
Created by potrace 1.14, written by Peter Selinger 2001-2017
</metadata>
<g transform="translate(0.000000,512.000000) scale(0.100000,-0.100000)"
fill="#000000" stroke="none">
<path d="M1406 5100 c-27 -11 -69 -38 -92 -61 -135 -133 -97 -362 74 -440 l42
-20 0 -107 c1 -130 6 -142 114 -252 43 -44 77 -81 75 -81 -2 -1 -105 -3 -229
-4 -203 -1 -229 -3 -271 -22 -52 -23 -110 -90 -125 -143 -5 -19 -10 -133 -9
-252 l0 -218 -85 85 c-47 46 -102 91 -122 100 -25 10 -70 15 -137 15 l-99 0
-22 46 c-80 165 -296 204 -431 77 -88 -82 -113 -217 -60 -321 43 -85 152 -152
247 -152 99 0 207 69 246 158 l19 42 92 0 92 0 130 -130 129 -129 1 -100 c1
-82 4 -104 20 -120 10 -12 26 -21 37 -21 16 0 18 -9 18 -100 0 -96 -1 -101
-23 -109 -40 -16 -50 -38 -51 -116 -1 -40 -5 -77 -10 -82 -4 -4 -104 -8 -221
-8 l-213 -1 -16 36 c-62 141 -235 204 -370 136 -96 -49 -148 -129 -152 -238
-5 -114 58 -213 165 -261 59 -26 153 -26 214 1 56 25 122 90 142 140 l15 37
223 0 222 0 1 -330 0 -330 -130 -133 -130 -132 -93 0 -93 0 -15 38 c-20 46
-78 108 -128 133 -56 29 -144 35 -208 14 -64 -22 -135 -84 -161 -143 -98 -221
109 -453 335 -376 60 20 140 92 161 144 l16 40 100 0 c68 0 113 5 138 15 20 9
74 53 120 98 45 45 83 79 83 77 1 -3 2 -104 3 -225 2 -201 4 -224 23 -260 25
-47 64 -86 113 -111 30 -15 66 -18 265 -20 127 -1 232 -2 235 -3 2 -1 -32 -38
-77 -83 -45 -46 -89 -100 -98 -120 -10 -25 -15 -70 -15 -137 l0 -99 -36 -17
c-173 -82 -216 -292 -88 -434 107 -119 287 -119 398 -1 77 82 97 211 48 306
-26 51 -87 109 -134 129 l-38 15 0 93 0 92 133 131 132 131 310 -2 c171 -2
316 -3 323 -4 9 -1 12 -52 12 -219 l0 -218 -43 -21 c-104 -50 -159 -136 -159
-246 0 -151 108 -266 257 -273 76 -3 124 12 182 56 155 119 138 355 -32 451
l-55 31 0 222 0 221 325 0 325 0 130 -130 130 -130 0 -91 0 -91 -38 -17 c-173
-78 -214 -311 -79 -444 79 -77 201 -100 305 -57 56 23 126 102 148 167 41 126
-24 277 -142 330 l-44 19 0 102 c0 129 -13 158 -114 257 -42 41 -76 77 -76 80
0 3 102 5 228 6 210 0 230 2 267 21 56 30 95 74 114 130 13 39 16 89 16 256 0
114 1 207 2 207 2 0 42 -38 89 -85 101 -98 117 -105 256 -105 l96 0 11 -31
c29 -83 128 -156 225 -166 165 -17 309 121 300 287 -5 76 -26 123 -82 179 -58
58 -118 81 -204 77 -105 -4 -206 -75 -240 -168 -10 -28 -11 -28 -102 -28 l-92
0 -130 133 -130 132 0 330 1 330 219 0 220 0 15 -29 c37 -68 79 -112 133 -139
136 -70 304 -12 373 128 28 58 27 175 -2 231 -55 103 -137 155 -246 156 -109
1 -189 -48 -244 -147 l-28 -51 -220 1 -220 0 -1 325 -1 325 131 133 131 132
91 0 c91 0 92 0 102 -27 18 -52 68 -108 123 -138 138 -75 312 -18 377 123 39
85 34 177 -12 257 -110 186 -389 173 -481 -22 l-20 -43 -103 0 c-65 0 -115 -5
-135 -14 -18 -7 -69 -50 -114 -95 -46 -44 -84 -81 -85 -81 -2 0 -3 102 -4 228
0 257 -6 279 -82 343 -58 49 -94 54 -329 54 -117 0 -213 1 -213 4 0 2 40 45
88 95 100 103 102 109 102 251 l0 93 43 21 c101 49 152 134 152 251 -1 84 -15
118 -75 183 -56 61 -102 80 -195 81 -95 1 -138 -18 -202 -87 -45 -48 -73 -122
-73 -188 0 -94 67 -196 157 -240 l43 -21 0 -92 0 -91 -130 -130 -130 -130
-325 0 -325 -1 0 222 0 222 54 31 c91 51 139 133 139 236 0 75 -27 139 -82
194 -53 53 -101 73 -183 77 -58 3 -75 -1 -128 -27 -202 -102 -205 -381 -5
-485 l55 -29 0 -220 0 -221 -325 1 -325 0 -130 130 -130 130 0 92 0 92 43 19
c172 77 208 318 65 446 -81 74 -184 94 -282 56z"/>
</g>
</svg>
